<?xml version="1.0" encoding="utf-8"?>
<!-- Generator: Adobe Illustrator 27.9.0, SVG Export Plug-In . SVG Version: 6.00 Build 0)  -->
<svg version="1.1" id="レイヤー_2_00000148625415034306552790000004048229789745136568_"
	 xmlns="http://www.w3.org/2000/svg" xmlns:xlink="http://www.w3.org/1999/xlink" x="0px" y="0px" viewBox="0 0 512 512"
	 style="enable-background:new 0 0 512 512;" xml:space="preserve">
<style type="text/css">
	.st0{fill:#FADC19;}
	.st1{fill:#FFFFFF;}
</style>
<g>
	<rect class="st0" width="512" height="512"/>
	<g>
		<polygon class="st1" points="192,438.8570862 82.2857132,438.8570862 82.2857132,475.4285278 228.5714264,475.4285278 
			228.5714264,329.1427917 192,329.1427917 		"/>
		<rect x="82.2857132" y="292.5713806" class="st1" width="73.1428604" height="36.5714302"/>
		<rect x="82.2857132" y="347.4285278" class="st1" width="73.1428604" height="36.5714302"/>
		<rect x="177.3714294" y="274.285675" class="st1" width="29.257143" height="36.5714302"/>
		<rect x="213.9428558" y="274.285675" class="st1" width="29.257143" height="36.5714302"/>
		<polygon class="st1" points="228.5714264,91.4285202 192,91.4285202 192,201.142807 82.2857132,201.142807 
			82.2857132,237.7142334 228.5714264,237.7142334 		"/>
		<rect x="82.2857132" y="54.85709" class="st1" width="73.1428604" height="36.5714302"/>
		<rect x="82.2857132" y="109.7142334" class="st1" width="73.1428604" height="36.5714302"/>
		<rect x="177.3714294" y="36.5713768" class="st1" width="29.257143" height="36.5714302"/>
		<rect x="213.9428558" y="36.5713768" class="st1" width="29.257143" height="36.5714302"/>
		<path class="st1" d="M283.4285583,54.85709v36.5714302h-18.2857056v36.5714264h18.2857056v109.7142868h146.2857361V127.9999466
			V54.85709H283.4285583z M393.1428528,201.142807H320v-73.1428604h73.1428528V201.142807z"/>
		<polygon class="st1" points="362.4553528,365.7142334 382.0535583,438.8570862 312.8035583,438.8570862 352.000885,292.5713806 
			314.1392822,292.5713806 265.1428528,475.4285278 429.7142944,475.4285278 400.3160706,365.7142334 		"/>
	</g>
</g>
</svg>
